<svg width="140" height="24" viewBox="0 0 140 24" fill="none" xmlns="http://www.w3.org/2000/svg">
<g clip-path="url(#clip0_952_7449)">
<path d="M8.41931 23.8833C7.03849 23.9063 5.67682 23.5581 4.47645 22.8753C3.32622 22.2137 2.37797 21.2512 1.73359 20.0913C1.03742 18.8335 0.685016 17.4144 0.711878 15.977C0.685022 14.537 1.04496 13.1162 1.75416 11.8627C2.41219 10.6997 3.37156 9.73561 4.53131 9.07185C5.7333 8.39302 7.09385 8.04519 8.47416 8.06386C9.82553 8.04365 11.1587 8.37695 12.3416 9.03071C13.4887 9.69932 14.4358 10.663 15.0844 11.8216C15.7761 13.0809 16.126 14.4993 16.0993 15.9359C16.126 17.3724 15.7761 18.7908 15.0844 20.0501C14.4461 21.2252 13.4973 22.2025 12.3416 22.8753C11.1469 23.5537 9.79305 23.9016 8.41931 23.8833ZM8.41931 20.4959C8.91706 20.5015 9.4103 20.4009 9.86616 20.201C10.3214 20.0013 10.7318 19.7121 11.073 19.3507C11.4782 18.8822 11.7862 18.3378 11.9793 17.7493C12.1723 17.1607 12.2465 16.5396 12.1976 15.9221C12.2477 15.3046 12.174 14.6832 11.9809 14.0945C11.7878 13.5058 11.4792 12.9615 11.073 12.4936C10.7385 12.1311 10.3323 11.8422 9.8802 11.645C9.4281 11.4479 8.93995 11.3469 8.44673 11.3484C7.94782 11.3425 7.45323 11.4414 6.99493 11.6387C6.53663 11.8359 6.12484 12.1272 5.78616 12.4936C5.38408 12.9636 5.07892 13.5085 4.88828 14.0969C4.69763 14.6853 4.62525 15.3056 4.67531 15.9221C4.62834 16.5332 4.70227 17.1474 4.89288 17.7299C5.08349 18.3123 5.38704 18.8514 5.78616 19.3164C6.12113 19.6789 6.52732 19.9684 6.97931 20.1667C7.4304 20.3777 7.92135 20.4899 8.41931 20.4959Z" fill="white"/>
<path d="M26.9748 24.0001C25.6072 24.0228 24.2613 23.6566 23.0937 22.9441C21.9539 22.2373 21.0217 21.2413 20.392 20.0572C19.7203 18.7713 19.3786 17.3387 19.3977 15.8881C19.3736 14.4434 19.7156 13.0162 20.392 11.7395C21.0257 10.5746 21.9582 9.59947 23.0937 8.91435C24.2645 8.2108 25.6091 7.8497 26.9748 7.87207C28.0274 7.85678 29.0686 8.0918 30.0125 8.55778C30.8628 8.97547 31.5904 9.60623 32.1245 10.3886V1.24121H36.0948V23.6298H32.5565L32.1245 21.4218C31.5926 22.1389 30.9295 22.7485 30.1702 23.2184C29.2024 23.7807 28.093 24.0521 26.9748 24.0001ZM27.8114 20.5166C28.3968 20.5372 28.9799 20.4336 29.5224 20.2126C30.0649 19.9916 30.5545 19.6582 30.9588 19.2344C31.801 18.3431 32.257 17.1551 32.2274 15.9292C32.2729 14.7062 31.8315 13.5152 31 12.6172C30.1615 11.7947 29.0339 11.3339 27.8594 11.3339C26.6849 11.3339 25.5572 11.7947 24.7188 12.6172C24.3021 13.0548 23.9775 13.5716 23.7643 14.137C23.5511 14.7024 23.4536 15.3049 23.4777 15.9086C23.4328 17.1216 23.8662 18.3036 24.6845 19.2001C25.0822 19.6292 25.5667 19.9686 26.1059 20.1957C26.6451 20.4227 27.2265 20.5321 27.8114 20.5166Z" fill="white"/>
<path d="M47.2032 24C45.8378 24.0218 44.4943 23.6556 43.3289 22.944C42.1859 22.2412 41.2528 21.2442 40.6272 20.0572C39.9491 18.7737 39.6071 17.3394 39.6329 15.888C39.6055 14.4431 39.9477 13.015 40.6272 11.7395C41.2582 10.5748 42.1885 9.59962 43.322 8.91433C44.4941 8.21382 45.8378 7.85296 47.2032 7.87205C48.2554 7.86012 49.2958 8.09497 50.2409 8.55776C51.092 8.97736 51.8197 9.61055 52.3529 10.3955V1.24805H56.3232V23.6298H52.7986L52.3666 21.4218C51.8312 22.1406 51.1631 22.7504 50.3986 23.2183C49.4302 23.7792 48.3211 24.0505 47.2032 24ZM48.0397 20.5166C48.6261 20.5364 49.21 20.4325 49.7535 20.2116C50.297 19.9906 50.7878 19.6576 51.194 19.2343C52.0226 18.3378 52.4616 17.1491 52.4146 15.9292C52.4386 15.3235 52.3425 14.719 52.1319 14.1505C51.9212 13.5821 51.6001 13.061 51.1872 12.6172C50.3487 11.7947 49.2211 11.3339 48.0466 11.3339C46.8721 11.3339 45.7444 11.7947 44.906 12.6172C44.4893 13.0548 44.1647 13.5716 43.9515 14.137C43.7383 14.7024 43.6408 15.3048 43.6649 15.9086C43.6293 17.1263 44.0753 18.309 44.906 19.2C45.3063 19.6264 45.7928 19.9624 46.3331 20.1859C46.8735 20.4094 47.4553 20.5151 48.0397 20.496V20.5166Z" fill="white"/>
<path d="M64.456 9.80566H60.5132V23.7737H64.456V9.80566Z" fill="#07B2D9"/>
<path d="M139.885 0.0822754H69.6812V4.05942H139.885V0.0822754Z" fill="#07B2D9"/>
<path d="M76.1132 24.0001C74.6793 24.0262 73.2627 23.6838 71.999 23.0058C70.8146 22.3551 69.836 21.386 69.1738 20.2081C68.4749 18.9315 68.1227 17.494 68.1521 16.0389C68.1259 14.5575 68.4725 13.0932 69.1601 11.7807C69.8072 10.5854 70.7733 9.59312 71.951 8.91437C73.2319 8.19276 74.6847 7.83251 76.1544 7.87208C77.5517 7.84212 78.9316 8.18534 80.1521 8.86637C81.3014 9.51081 82.2505 10.4599 82.8949 11.6092C83.5531 12.7807 83.889 14.1057 83.8687 15.4492C83.8687 15.6755 83.8687 15.9155 83.8687 16.1349C83.8687 16.3544 83.8687 16.6424 83.8207 16.9098H72.0881C72.1066 17.4387 72.2294 17.9587 72.4495 18.44C72.6695 18.9213 72.9825 19.3544 73.3704 19.7144C74.1201 20.3936 75.1018 20.7593 76.1132 20.7361C76.8379 20.7669 77.5549 20.578 78.1704 20.1944C78.7026 19.8464 79.1276 19.3574 79.3978 18.7818H83.4298C83.1397 19.7569 82.6493 20.6608 81.9898 21.4355C81.2967 22.2452 80.4293 22.8875 79.4527 23.3144C78.4042 23.788 77.2635 24.0223 76.1132 24.0001ZM76.1132 11.0744C75.1871 11.0605 74.2818 11.3494 73.5349 11.8972C72.7665 12.5206 72.2699 13.4179 72.1498 14.4001H79.8092C79.8002 13.941 79.6969 13.4886 79.5058 13.0711C79.3147 12.6535 79.0399 12.2796 78.6984 11.9727C77.9915 11.3675 77.0845 11.0472 76.1544 11.0744H76.1132Z" fill="white"/>
<path d="M87.2012 23.7738V8.35891H90.7052L91.0137 10.9715C91.4823 10.0685 92.1951 9.31537 93.0709 8.79777C94.0378 8.24282 95.1381 7.96301 96.2526 7.98862C97.0794 7.94264 97.9062 8.08054 98.6733 8.39237C99.4405 8.70421 100.129 9.18224 100.689 9.79205C101.745 10.9943 102.273 12.7543 102.273 15.0721V23.7738H98.296V15.4492C98.3675 14.374 98.0858 13.3049 97.4937 12.4046C97.1897 12.0397 96.8023 11.7533 96.3643 11.5695C95.9263 11.3858 95.4506 11.31 94.9772 11.3486C94.4615 11.3325 93.9486 11.4298 93.4747 11.6336C93.0008 11.8374 92.5773 12.1427 92.2343 12.5281C91.4749 13.4507 91.0927 14.6266 91.1646 15.8195V23.7738H87.2012Z" fill="white"/>
<path d="M113.601 23.9999C112.147 24.0289 110.711 23.6742 109.439 22.9713C108.251 22.2951 107.27 21.3092 106.6 20.1188C105.906 18.8312 105.561 17.3844 105.599 15.9222C105.569 14.4567 105.927 13.0094 106.634 11.7256C107.303 10.5327 108.285 9.54428 109.473 8.8662C110.746 8.16394 112.182 7.81141 113.635 7.84448C115.416 7.78353 117.165 8.32468 118.6 9.38048C119.958 10.4218 120.877 11.9334 121.178 13.6182H116.988C116.805 12.904 116.369 12.2804 115.761 11.8628C114.998 11.3616 114.082 11.1478 113.177 11.2596C112.271 11.3714 111.435 11.8015 110.817 12.4731C110.004 13.4245 109.589 14.6523 109.658 15.9016C109.588 17.1499 110.001 18.3773 110.81 19.3302C111.157 19.7256 111.585 20.0414 112.065 20.2559C112.659 20.508 113.305 20.6117 113.948 20.5579C114.59 20.5042 115.21 20.2946 115.754 19.9473C116.368 19.5296 116.805 18.8993 116.981 18.1782H121.178C120.852 19.8418 119.936 21.3318 118.6 22.3748C117.171 23.4773 115.405 24.0515 113.601 23.9999Z" fill="white"/>
<path d="M132.157 24.0001C130.723 24.0262 129.306 23.6839 128.042 23.0058C126.858 22.3568 125.882 21.3871 125.224 20.2081C124.518 18.9339 124.163 17.4952 124.195 16.0389C124.169 14.5575 124.516 13.0932 125.203 11.7807C125.849 10.5863 126.812 9.59413 127.987 8.91437C129.268 8.19276 130.721 7.83251 132.191 7.87208C133.588 7.84212 134.968 8.18534 136.189 8.86637C137.34 9.50821 138.29 10.458 138.931 11.6092C139.589 12.7814 139.927 14.1055 139.912 15.4492C139.912 15.6755 139.912 15.9155 139.912 16.1349C139.912 16.3544 139.912 16.6424 139.864 16.9098H128.125C128.136 17.4414 128.253 17.9654 128.468 18.4516C128.683 18.9377 128.993 19.3763 129.379 19.7418C130.129 20.4211 131.111 20.7868 132.122 20.7635C132.847 20.7943 133.564 20.6055 134.179 20.2218C134.712 19.8739 135.137 19.3848 135.407 18.8092H139.439C139.149 19.7844 138.658 20.6882 137.999 21.4629C137.31 22.2557 136.456 22.8877 135.496 23.3144C134.447 23.7871 133.307 24.0213 132.157 24.0001ZM132.191 11.0744C131.265 11.0605 130.359 11.3494 129.613 11.8972C128.829 12.5134 128.317 13.4116 128.186 14.4001H135.853C135.841 13.9408 135.736 13.4886 135.544 13.0712C135.352 12.6539 135.076 12.2801 134.735 11.9727C134.029 11.3663 133.121 11.0459 132.191 11.0744Z" fill="white"/>
<path d="M62.4741 5.03999C62.9737 5.0427 63.463 4.89702 63.8797 4.62139C64.2965 4.34577 64.6221 3.95262 64.8152 3.49177C65.0083 3.03092 65.0602 2.52312 64.9644 2.03272C64.8686 1.54232 64.6293 1.09141 64.277 0.737129C63.9246 0.382848 63.475 0.141149 62.9852 0.0426652C62.4953 -0.0558186 61.9872 -0.00665355 61.5253 0.183929C61.0634 0.374512 60.6685 0.697932 60.3906 1.1132C60.1127 1.52847 59.9644 2.01689 59.9644 2.51656C59.9635 2.84704 60.0277 3.17446 60.1533 3.48013C60.2789 3.7858 60.4636 4.06373 60.6966 4.29805C60.9297 4.53237 61.2066 4.7185 61.5116 4.8458C61.8165 4.9731 62.1436 5.03909 62.4741 5.03999Z" fill="white"/>
</g>
<defs>
<clipPath id="clip0_952_7449">
<rect width="139.2" height="24" fill="white" transform="translate(0.68457)"/>
</clipPath>
</defs>
</svg>
